<?xml version="1.0" encoding="UTF-8" standalone="no"?>
<svg width="48px" height="48px" viewBox="0 0 48 48" version="1.1" xmlns="http://www.w3.org/2000/svg" xmlns:xlink="http://www.w3.org/1999/xlink" xmlns:sketch="http://www.bohemiancoding.com/sketch/ns">
    <!-- Generator: Sketch 3.2.2 (9983) - http://www.bohemiancoding.com/sketch -->
    <title>Slice 1</title>
    <desc>Created with Sketch.</desc>
    <defs></defs>
    <g id="Page-1" stroke="none" stroke-width="1" fill="none" fill-rule="evenodd" sketch:type="MSPage">
        <g id="js-black" sketch:type="MSLayerGroup" transform="translate(3.000000, 0.000000)" fill="#7FBD42">
            <path d="M35.8429195,27.8782969 C35.8429195,24.1562686 33.2490694,23.1650451 27.7882459,22.4651329 C22.2705628,21.756934 21.709526,21.391998 21.709526,20.1387856 C21.709526,19.1042159 22.1847804,17.7235149 26.2714418,17.7235149 C29.9219604,17.7235149 31.2671997,18.4862152 31.8206771,20.8728009 C31.86932,21.0971808 32.080325,21.261641 32.3195955,21.261641 L34.6255322,21.261641 C34.7688315,21.261641 34.9045715,21.2017214 35.0015287,21.1029177 C35.0988145,20.9971022 35.1507441,20.8613269 35.1372687,20.7194959 C34.7803349,16.6089462 31.9639764,14.6934307 26.2714418,14.6934307 C21.2050202,14.6934307 18.1835727,16.7663946 18.1835727,20.2433262 C18.1835727,24.015075 21.1902301,25.0563378 26.05222,25.5229459 C31.86932,26.0749713 32.3209102,26.8995036 32.3209102,28.0096102 C32.3209102,29.9356435 30.7275264,30.7569885 26.9839946,30.7569885 C22.2820662,30.7569885 21.2477471,29.6121413 20.9010021,27.3441199 C20.8615619,27.1009355 20.6472701,26.9224515 20.3905802,26.9224515 L18.0931889,26.9224515 C17.8085622,26.9224515 17.5798091,27.142688 17.5798091,27.4187007 C17.5798091,30.3216151 19.2086891,33.7829293 26.9839946,33.7829293 C32.614411,33.7829293 35.8429195,31.6321974 35.8429195,27.8782969 L35.8429195,27.8782969 Z M21.495563,47.4825306 C20.8464431,47.4825306 20.2002813,47.3180704 19.6323425,46.9990303 L13.6992227,43.5947672 C12.814119,43.1141353 13.2466464,42.9442568 13.5385039,42.8454532 C14.7207237,42.4480076 14.9596655,42.3562159 16.2210944,41.6620407 C16.3525617,41.5906471 16.5264272,41.6180571 16.6618386,41.694869 L21.2194816,44.3195396 C21.3851304,44.4081441 21.6181562,44.4081441 21.770001,44.3195396 L39.5387943,34.3741575 C39.7037858,34.2823657 39.8099457,34.0975073 39.8099457,33.9075494 L39.8099457,14.0222035 C39.8099457,13.8274647 39.7037858,13.6457935 39.5345216,13.5469899 L21.772959,3.61021325 C21.6092822,3.5171466 21.3910465,3.5171466 21.2257263,3.61021325 L3.46876505,13.5501771 C3.2962142,13.6457935 3.18709633,13.8332017 3.18709633,14.0222035 L3.18709633,33.9075494 C3.18709633,34.0975073 3.2962142,34.2779036 3.46745037,34.3677831 L8.33469896,37.0954007 C10.9758773,38.3757045 12.5929252,36.8678336 12.5929252,35.3523134 L12.5929252,15.7190761 C12.5929252,15.4414698 12.822993,15.2225082 13.1092631,15.2225082 L15.3622842,15.2225082 C15.6439529,15.2225082 15.8769787,15.4414698 15.8769787,15.7190761 L15.8769787,35.3523134 C15.8769787,38.770919 13.9575559,40.7310555 10.6159855,40.7310555 C9.58889713,40.7310555 8.78037315,40.7310555 6.52307939,39.6521836 L1.86354916,37.0507797 C0.712552835,36.4056876 0,35.1990084 0,33.9075494 L0,14.0222035 C0,12.730107 0.712552835,11.5237465 1.86354916,10.8815229 L19.6323425,0.924666859 C20.756388,0.307940979 22.2511714,0.307940979 23.3666715,0.924666859 L41.1334928,10.8815229 C42.2848178,11.5269337 43,12.730107 43,14.0222035 L43,33.9075494 C43,35.1990084 42.2848178,36.4012255 41.1334928,37.0507797 L23.3666715,46.9990303 C22.7987327,47.3180704 22.1538855,47.4825306 21.495563,47.4825306 L21.495563,47.4825306 Z" id="Fill-1" sketch:type="MSShapeGroup"></path>
        </g>
    </g>
</svg>