<?xml version="1.0" encoding="UTF-8" standalone="no"?>
<svg width="387px" height="109px" viewBox="0 0 387 109" version="1.1" xmlns="http://www.w3.org/2000/svg" xmlns:xlink="http://www.w3.org/1999/xlink" xmlns:sketch="http://www.bohemiancoding.com/sketch/ns">
    <!-- Generator: Sketch 3.2.2 (9983) - http://www.bohemiancoding.com/sketch -->
    <title>icon</title>
    <desc>Created with Sketch.</desc>
    <defs>
        <path id="path-1" d="M61.336,18.972 C61.336,17.796 60.716,16.712 59.704,16.128 L32.652,0.548 C32.196,0.28 31.68,0.14 31.164,0.116 L30.884,0.116 C30.368,0.14 29.856,0.28 29.392,0.548 L2.34,16.128 C1.332,16.712 0.704,17.796 0.704,18.972 L0.76,60.928 C0.76,61.512 1.064,62.056 1.576,62.34 C2.08,62.64 2.7,62.64 3.2,62.34 L19.28,53.128 C20.292,52.524 20.912,51.456 20.912,50.292 L20.912,30.688 C20.912,29.52 21.532,28.436 22.544,27.856 L29.392,23.908 C29.9,23.616 30.456,23.472 31.028,23.472 C31.584,23.472 32.156,23.616 32.652,23.908 L39.496,27.856 C40.508,28.436 41.128,29.52 41.128,30.688 L41.128,50.292 C41.128,51.456 41.756,52.528 42.768,53.128 L58.84,62.34 C59.344,62.64 59.972,62.64 60.472,62.34 C60.968,62.056 61.284,61.512 61.284,60.928 L61.336,18.972 L61.336,18.972 Z"></path>
        <path d="M41.272,79.82 C41.272,80.108 41.116,80.38 40.864,80.528 L31.572,85.884 C31.32,86.032 31.008,86.032 30.756,85.884 L21.464,80.528 C21.208,80.38 21.056,80.108 21.056,79.82 L21.056,69.08 C21.056,68.788 21.208,68.52 21.464,68.372 L30.752,63 C31.008,62.856 31.32,62.856 31.572,63 L40.864,68.372 C41.116,68.52 41.272,68.788 41.272,69.08 L41.272,79.82 L41.272,79.82 Z M43.78,0.296 C43.276,0.016 42.656,0.02 42.16,0.312 C41.66,0.608 41.352,1.144 41.352,1.724 L41.352,43.272 C41.352,43.68 41.136,44.06 40.78,44.264 C40.428,44.468 39.992,44.468 39.636,44.264 L32.86,40.36 C31.852,39.776 30.608,39.776 29.596,40.36 L2.536,55.992 C1.524,56.576 0.9,57.656 0.9,58.824 L0.9,90.092 C0.9,91.264 1.524,92.34 2.536,92.924 L29.596,108.568 C30.604,109.152 31.852,109.152 32.864,108.568 L59.928,92.924 C60.94,92.34 61.564,91.264 61.564,90.092 L61.564,12.148 C61.564,10.96 60.92,9.868 59.884,9.292 L43.78,0.296 L43.78,0.296 Z" id="path-3"></path>
        <path id="path-5" d="M59.6,29.8 C60.604,29.216 61.224,28.136 61.224,26.972 L61.224,19.392 C61.224,18.228 60.604,17.152 59.596,16.564 L32.712,0.94 C31.696,0.352 30.448,0.348 29.436,0.936 L2.384,16.568 C1.372,17.152 0.748,18.232 0.748,19.4 L0.748,50.66 C0.748,51.836 1.38,52.92 2.4,53.5 L29.284,68.836 C30.276,69.4 31.492,69.404 32.488,68.852 L48.748,59.804 C49.264,59.52 49.588,58.976 49.588,58.388 C49.592,57.796 49.28,57.252 48.768,56.96 L21.548,41.32 C21.036,41.028 20.724,40.488 20.724,39.9 L20.724,30.104 C20.724,29.52 21.036,28.976 21.54,28.688 L30.016,23.8 C30.52,23.504 31.14,23.504 31.644,23.8 L40.124,28.688 C40.628,28.976 40.94,29.52 40.94,30.104 L40.94,37.812 C40.94,38.396 41.252,38.94 41.76,39.228 C42.268,39.524 42.888,39.52 43.396,39.228 L59.6,29.8 L59.6,29.8 Z"></path>
        <path id="path-7" d="M29.544,0.772 C30.556,0.188 31.8,0.188 32.812,0.772 L59.868,16.4 C60.88,16.984 61.504,18.064 61.504,19.232 L61.504,50.516 C61.504,51.684 60.88,52.76 59.868,53.348 L32.812,68.988 C31.8,69.572 30.556,69.572 29.544,68.988 L2.492,53.348 C1.48,52.76 0.856,51.684 0.856,50.516 L0.856,19.232 C0.856,18.064 1.48,16.984 2.492,16.4 L29.544,0.772 L29.544,0.772 Z"></path>
        <path id="path-9" d="M31.136,70.432 C30.204,70.432 29.276,70.192 28.46,69.716 L19.94,64.672 C18.668,63.96 19.288,63.708 19.708,63.56 C21.408,62.972 21.752,62.836 23.56,61.808 C23.752,61.704 24,61.74 24.196,61.856 L30.74,65.744 C30.976,65.88 31.312,65.88 31.532,65.744 L57.044,51.004 C57.284,50.868 57.432,50.596 57.432,50.316 L57.432,20.844 C57.432,20.556 57.284,20.288 57.04,20.14 L31.536,5.412 C31.3,5.272 30.984,5.272 30.748,5.412 L5.248,20.144 C5,20.288 4.844,20.564 4.844,20.844 L4.844,50.316 C4.844,50.596 5,50.864 5.248,50.996 L12.236,55.04 C16.028,56.936 18.352,54.7 18.352,52.456 L18.352,23.356 C18.352,22.948 18.684,22.624 19.092,22.624 L22.328,22.624 C22.732,22.624 23.068,22.948 23.068,23.356 L23.068,52.456 C23.068,57.524 20.312,60.428 15.512,60.428 C14.036,60.428 12.876,60.428 9.636,58.828 L2.944,54.972 C1.292,54.016 0.268,52.228 0.268,50.316 L0.268,20.844 C0.268,18.928 1.292,17.14 2.944,16.188 L28.46,1.432 C30.076,0.52 32.22,0.52 33.82,1.432 L59.336,16.188 C60.988,17.144 62.012,18.928 62.012,20.844 L62.012,50.316 C62.012,52.228 60.988,54.012 59.336,54.972 L33.82,69.716 C33.004,70.192 32.08,70.432 31.136,70.432 L31.136,70.432 L31.136,70.432 Z"></path>
        <path id="path-11" d="M14.016,29.132 C2.852,29.132 0.512,24 0.512,19.7 C0.512,19.288 0.84,18.964 1.248,18.964 L4.548,18.964 C4.92,18.964 5.224,19.228 5.284,19.588 C5.78,22.948 7.264,24.644 14.016,24.644 C19.392,24.644 21.68,23.428 21.68,20.572 C21.68,18.928 21.032,17.708 12.68,16.888 C5.696,16.196 1.38,14.652 1.38,9.064 C1.38,3.908 5.72,0.836 12.992,0.836 C21.168,0.836 25.212,3.676 25.724,9.772 C25.744,9.98 25.668,10.18 25.532,10.336 C25.388,10.484 25.196,10.572 24.992,10.572 L21.676,10.572 C21.336,10.572 21.032,10.328 20.96,9.996 C20.168,6.46 18.236,5.328 12.992,5.328 C7.124,5.328 6.444,7.376 6.444,8.908 C6.444,10.768 7.248,11.308 15.172,12.356 C23.012,13.396 26.736,14.864 26.736,20.376 C26.736,25.944 22.104,29.132 14.016,29.132 L14.016,29.132 L14.016,29.132 Z"></path>
        <path id="path-13" d="M5.672,0.336 C5.868,0.224 6.108,0.224 6.3,0.336 L11.492,3.332 C11.688,3.448 11.808,3.652 11.808,3.876 L11.808,9.88 C11.808,10.104 11.688,10.312 11.492,10.42 L6.3,13.42 C6.108,13.532 5.868,13.532 5.672,13.42 L0.484,10.42 C0.292,10.312 0.172,10.104 0.172,9.88 L0.172,3.876 C0.172,3.652 0.292,3.448 0.484,3.332 L5.672,0.336 L5.672,0.336 Z"></path>
    </defs>
    <g id="Page-1" stroke="none" stroke-width="1" fill="none" fill-rule="evenodd" sketch:type="MSPage">
        <g id="icon" sketch:type="MSLayerGroup" transform="translate(-3.000000, -1.000000)">
            <g id="Page-1">
                <g id="green">
                    <g id="Group-6" transform="translate(0.000000, 40.000000)">
                        <g id="mask-2" transform="translate(3.000000, 0.000000)" fill="#FFFFFF" sketch:type="MSShapeGroup">
                            <path d="M61.336,18.972 C61.336,17.796 60.716,16.712 59.704,16.128 L32.652,0.548 C32.196,0.28 31.68,0.14 31.164,0.116 L30.884,0.116 C30.368,0.14 29.856,0.28 29.392,0.548 L2.34,16.128 C1.332,16.712 0.704,17.796 0.704,18.972 L0.76,60.928 C0.76,61.512 1.064,62.056 1.576,62.34 C2.08,62.64 2.7,62.64 3.2,62.34 L19.28,53.128 C20.292,52.524 20.912,51.456 20.912,50.292 L20.912,30.688 C20.912,29.52 21.532,28.436 22.544,27.856 L29.392,23.908 C29.9,23.616 30.456,23.472 31.028,23.472 C31.584,23.472 32.156,23.616 32.652,23.908 L39.496,27.856 C40.508,28.436 41.128,29.52 41.128,30.688 L41.128,50.292 C41.128,51.456 41.756,52.528 42.768,53.128 L58.84,62.34 C59.344,62.64 59.972,62.64 60.472,62.34 C60.968,62.056 61.284,61.512 61.284,60.928 L61.336,18.972 L61.336,18.972 Z" id="path-1"></path>
                        </g>
                        <g id="Clip-5"></g>
                        <g id="Fill-4-Clipped" transform="translate(3.000000, 0.000000)">
                            <mask id="mask-2" sketch:name="path-1" fill="white">
                                <use xlink:href="#path-1"></use>
                            </mask>
                            <g id="path-1"></g>
                            <path d="M0.44,-0.16 L61.4,-0.16 L61.4,62.72 L0.44,62.72 L0.44,-0.16 L0.44,-0.16 Z" id="Fill-4" fill="#2C2C2A" sketch:type="MSShapeGroup" mask="url(#mask-2)"></path>
                        </g>
                    </g>
                    <g id="Group-9" transform="translate(164.000000, 0.000000)">
                        <g id="mask-4" transform="translate(1.000000, 1.000000)" fill="#FFFFFF" sketch:type="MSShapeGroup">
                            <path d="M41.272,79.82 C41.272,80.108 41.116,80.38 40.864,80.528 L31.572,85.884 C31.32,86.032 31.008,86.032 30.756,85.884 L21.464,80.528 C21.208,80.38 21.056,80.108 21.056,79.82 L21.056,69.08 C21.056,68.788 21.208,68.52 21.464,68.372 L30.752,63 C31.008,62.856 31.32,62.856 31.572,63 L40.864,68.372 C41.116,68.52 41.272,68.788 41.272,69.08 L41.272,79.82 L41.272,79.82 Z M43.78,0.296 C43.276,0.016 42.656,0.02 42.16,0.312 C41.66,0.608 41.352,1.144 41.352,1.724 L41.352,43.272 C41.352,43.68 41.136,44.06 40.78,44.264 C40.428,44.468 39.992,44.468 39.636,44.264 L32.86,40.36 C31.852,39.776 30.608,39.776 29.596,40.36 L2.536,55.992 C1.524,56.576 0.9,57.656 0.9,58.824 L0.9,90.092 C0.9,91.264 1.524,92.34 2.536,92.924 L29.596,108.568 C30.604,109.152 31.852,109.152 32.864,108.568 L59.928,92.924 C60.94,92.34 61.564,91.264 61.564,90.092 L61.564,12.148 C61.564,10.96 60.92,9.868 59.884,9.292 L43.78,0.296 L43.78,0.296 Z" id="path-3"></path>
                        </g>
                        <g id="Clip-8"></g>
                        <g id="Fill-7-Clipped" transform="translate(1.000000, 1.000000)">
                            <mask id="mask-4" sketch:name="path-3" fill="white">
                                <use xlink:href="#path-3"></use>
                            </mask>
                            <g id="path-3"></g>
                            <path d="M0.68,-0.04 L61.64,-0.04 L61.64,109.4 L0.68,109.4 L0.68,-0.04 L0.68,-0.04 Z" id="Fill-7" fill="#2C2C2A" sketch:type="MSShapeGroup" mask="url(#mask-4)"></path>
                        </g>
                    </g>
                    <g id="Group-12" transform="translate(244.000000, 40.000000)">
                        <g id="mask-6" transform="translate(2.000000, 0.000000)" fill="#FFFFFF" sketch:type="MSShapeGroup">
                            <path d="M59.6,29.8 C60.604,29.216 61.224,28.136 61.224,26.972 L61.224,19.392 C61.224,18.228 60.604,17.152 59.596,16.564 L32.712,0.94 C31.696,0.352 30.448,0.348 29.436,0.936 L2.384,16.568 C1.372,17.152 0.748,18.232 0.748,19.4 L0.748,50.66 C0.748,51.836 1.38,52.92 2.4,53.5 L29.284,68.836 C30.276,69.4 31.492,69.404 32.488,68.852 L48.748,59.804 C49.264,59.52 49.588,58.976 49.588,58.388 C49.592,57.796 49.28,57.252 48.768,56.96 L21.548,41.32 C21.036,41.028 20.724,40.488 20.724,39.9 L20.724,30.104 C20.724,29.52 21.036,28.976 21.54,28.688 L30.016,23.8 C30.52,23.504 31.14,23.504 31.644,23.8 L40.124,28.688 C40.628,28.976 40.94,29.52 40.94,30.104 L40.94,37.812 C40.94,38.396 41.252,38.94 41.76,39.228 C42.268,39.524 42.888,39.52 43.396,39.228 L59.6,29.8 L59.6,29.8 Z" id="path-5"></path>
                        </g>
                        <g id="Clip-11"></g>
                        <g id="Fill-10-Clipped" transform="translate(2.000000, 0.000000)">
                            <mask id="mask-6" sketch:name="path-5" fill="white">
                                <use xlink:href="#path-5"></use>
                            </mask>
                            <g id="path-5"></g>
                            <path d="M0.32,0.32 L61.28,0.32 L61.28,69.44 L0.32,69.44 L0.32,0.32 L0.32,0.32 Z" id="Fill-10" fill="#2C2C2A" sketch:type="MSShapeGroup" mask="url(#mask-6)"></path>
                        </g>
                    </g>
                    <g id="Group-15" transform="translate(84.000000, 40.000000)">
                        <g id="mask-8" fill="#FFFFFF" sketch:type="MSShapeGroup">
                            <path d="M29.544,0.772 C30.556,0.188 31.8,0.188 32.812,0.772 L59.868,16.4 C60.88,16.984 61.504,18.064 61.504,19.232 L61.504,50.516 C61.504,51.684 60.88,52.76 59.868,53.348 L32.812,68.988 C31.8,69.572 30.556,69.572 29.544,68.988 L2.492,53.348 C1.48,52.76 0.856,51.684 0.856,50.516 L0.856,19.232 C0.856,18.064 1.48,16.984 2.492,16.4 L29.544,0.772 L29.544,0.772 Z" id="path-7"></path>
                        </g>
                        <g id="Clip-14"></g>
                        <g id="Fill-13-Clipped">
                            <mask id="mask-8" sketch:name="path-7" fill="white">
                                <use xlink:href="#path-7"></use>
                            </mask>
                            <g id="path-7"></g>
                            <path d="M0.56,0.32 L61.52,0.32 L61.52,69.44 L0.56,69.44 L0.56,0.32 L0.56,0.32 Z" id="Fill-13" fill="#78B743" sketch:type="MSShapeGroup" mask="url(#mask-8)"></path>
                        </g>
                    </g>
                    <g id="Group-18" transform="translate(324.000000, 36.000000)">
                        <g id="mask-10" transform="translate(3.000000, 3.000000)" fill="#FFFFFF" sketch:type="MSShapeGroup">
                            <path d="M31.136,70.432 C30.204,70.432 29.276,70.192 28.46,69.716 L19.94,64.672 C18.668,63.96 19.288,63.708 19.708,63.56 C21.408,62.972 21.752,62.836 23.56,61.808 C23.752,61.704 24,61.74 24.196,61.856 L30.74,65.744 C30.976,65.88 31.312,65.88 31.532,65.744 L57.044,51.004 C57.284,50.868 57.432,50.596 57.432,50.316 L57.432,20.844 C57.432,20.556 57.284,20.288 57.04,20.14 L31.536,5.412 C31.3,5.272 30.984,5.272 30.748,5.412 L5.248,20.144 C5,20.288 4.844,20.564 4.844,20.844 L4.844,50.316 C4.844,50.596 5,50.864 5.248,50.996 L12.236,55.04 C16.028,56.936 18.352,54.7 18.352,52.456 L18.352,23.356 C18.352,22.948 18.684,22.624 19.092,22.624 L22.328,22.624 C22.732,22.624 23.068,22.948 23.068,23.356 L23.068,52.456 C23.068,57.524 20.312,60.428 15.512,60.428 C14.036,60.428 12.876,60.428 9.636,58.828 L2.944,54.972 C1.292,54.016 0.268,52.228 0.268,50.316 L0.268,20.844 C0.268,18.928 1.292,17.14 2.944,16.188 L28.46,1.432 C30.076,0.52 32.22,0.52 33.82,1.432 L59.336,16.188 C60.988,17.144 62.012,18.928 62.012,20.844 L62.012,50.316 C62.012,52.228 60.988,54.012 59.336,54.972 L33.82,69.716 C33.004,70.192 32.08,70.432 31.136,70.432 L31.136,70.432 L31.136,70.432 Z" id="path-9"></path>
                        </g>
                        <g id="Clip-17"></g>
                        <g id="Fill-16-Clipped" transform="translate(3.000000, 3.000000)">
                            <mask id="mask-10" sketch:name="path-9" fill="white">
                                <use xlink:href="#path-9"></use>
                            </mask>
                            <g id="path-9"></g>
                            <path d="M-0.04,0.36 L62.36,0.36 L62.36,70.44 L-0.04,70.44 L-0.04,0.36 L-0.04,0.36 Z" id="Fill-16" fill="#78B743" sketch:type="MSShapeGroup" mask="url(#mask-10)"></path>
                        </g>
                    </g>
                    <g id="Group-21" transform="translate(352.000000, 60.000000)">
                        <g id="mask-12" fill="#FFFFFF" sketch:type="MSShapeGroup">
                            <path d="M14.016,29.132 C2.852,29.132 0.512,24 0.512,19.7 C0.512,19.288 0.84,18.964 1.248,18.964 L4.548,18.964 C4.92,18.964 5.224,19.228 5.284,19.588 C5.78,22.948 7.264,24.644 14.016,24.644 C19.392,24.644 21.68,23.428 21.68,20.572 C21.68,18.928 21.032,17.708 12.68,16.888 C5.696,16.196 1.38,14.652 1.38,9.064 C1.38,3.908 5.72,0.836 12.992,0.836 C21.168,0.836 25.212,3.676 25.724,9.772 C25.744,9.98 25.668,10.18 25.532,10.336 C25.388,10.484 25.196,10.572 24.992,10.572 L21.676,10.572 C21.336,10.572 21.032,10.328 20.96,9.996 C20.168,6.46 18.236,5.328 12.992,5.328 C7.124,5.328 6.444,7.376 6.444,8.908 C6.444,10.768 7.248,11.308 15.172,12.356 C23.012,13.396 26.736,14.864 26.736,20.376 C26.736,25.944 22.104,29.132 14.016,29.132 L14.016,29.132 L14.016,29.132 Z" id="path-11"></path>
                        </g>
                        <g id="Clip-20"></g>
                        <g id="Fill-19-Clipped">
                            <mask id="mask-12" sketch:name="path-11" fill="white">
                                <use xlink:href="#path-11"></use>
                            </mask>
                            <g id="path-11"></g>
                            <path d="M0.4,0.48 L26.8,0.48 L26.8,29.28 L0.4,29.28 L0.4,0.48 L0.4,0.48 Z" id="Fill-19" fill="#78B743" sketch:type="MSShapeGroup" mask="url(#mask-12)"></path>
                        </g>
                    </g>
                    <g id="Group-24" transform="translate(268.000000, 68.000000)">
                        <g id="mask-14" transform="translate(3.000000, 0.000000)" fill="#FFFFFF" sketch:type="MSShapeGroup">
                            <path d="M5.672,0.336 C5.868,0.224 6.108,0.224 6.3,0.336 L11.492,3.332 C11.688,3.448 11.808,3.652 11.808,3.876 L11.808,9.88 C11.808,10.104 11.688,10.312 11.492,10.42 L6.3,13.42 C6.108,13.532 5.868,13.532 5.672,13.42 L0.484,10.42 C0.292,10.312 0.172,10.104 0.172,9.88 L0.172,3.876 C0.172,3.652 0.292,3.448 0.484,3.332 L5.672,0.336 L5.672,0.336 Z" id="path-13"></path>
                        </g>
                        <g id="Clip-23"></g>
                        <g id="Fill-22-Clipped" transform="translate(3.000000, 0.000000)">
                            <mask id="mask-14" sketch:name="path-13" fill="white">
                                <use xlink:href="#path-13"></use>
                            </mask>
                            <g id="path-13"></g>
                            <path d="M-0.2,0.16 L12.28,0.16 L12.28,13.6 L-0.2,13.6 L-0.2,0.16 L-0.2,0.16 Z" id="Fill-22" fill="#78B743" sketch:type="MSShapeGroup" mask="url(#mask-14)"></path>
                        </g>
                    </g>
                </g>
            </g>
        </g>
    </g>
</svg>