<?xml version="1.0" encoding="utf-8"?>
<!-- Generator: Adobe Illustrator 16.0.0, SVG Export Plug-In . SVG Version: 6.00 Build 0)  -->
<!DOCTYPE svg PUBLIC "-//W3C//DTD SVG 1.1//EN" "http://www.w3.org/Graphics/SVG/1.1/DTD/svg11.dtd">
<svg version="1.1" id="Layer_1" xmlns="http://www.w3.org/2000/svg" xmlns:xlink="http://www.w3.org/1999/xlink" x="0px" y="0px"
	 width="469.834px" height="139px" viewBox="0 0 469.834 139" enable-background="new 0 0 469.834 139" xml:space="preserve">
<g>
	<rect x="168.887" y="58.971" fill="#F54A42" width="8.144" height="36.074"/>
	<rect x="150.143" y="51.9" fill="#F54A42" width="45.796" height="8.146"/>
	<path fill="#F54A42" d="M210.301,60.046h34.242V51.9h-38.338c-2.533,0-4.047,1.532-4.047,4.1v34.891
		c0,2.562,1.551,4.154,4.047,4.154H244.6V86.9h-34.299V60.046z"/>
	<rect x="208.214" y="67.774" fill="#F54A42" width="29.981" height="8.146"/>
	<path fill="#F54A42" d="M288.072,69.509c-3.218,0-6.504,0.084-9.685,0.164c-3.158,0.08-6.426,0.161-9.603,0.161
		c-9.443,0-9.443-1.455-9.443-3.863v-2.224c0-3.048,0-4.189,12.206-4.189h8.18c11.697,0,12.86,1.119,12.86,3.864v2.312h8.146v-2.745
		c0-9.951-6.515-11.63-21.111-11.63h-7.801c-14.546,0-20.627,1.722-20.627,12.388v2.276c0,11.033,8.69,11.955,17.591,11.955
		c2.722,0,5.483-0.066,8.246-0.137c2.737-0.066,5.475-0.135,8.169-0.135c7.497,0,7.497,0.924,7.497,2.943v2.168
		c0,3.459,0,4.623-12.858,4.623h-8.291c-12.534,0-12.534-1.174-12.534-5.545v-2.854h-8.142v2.963
		c0,11.576,5.458,13.635,20.837,13.635h8.235c15.421,0,20.896-1.961,20.896-12.986v-2.438
		C300.84,75.332,298.627,69.509,288.072,69.509z"/>
	<path fill="#F54A42" d="M345.345,69.509c-3.214,0-6.504,0.084-9.685,0.164c-3.158,0.08-6.426,0.161-9.603,0.161
		c-9.442,0-9.442-1.455-9.442-3.863v-2.224c0-3.048,0-4.189,12.205-4.189h8.181c11.696,0,12.858,1.119,12.858,3.864v2.312h8.146
		v-2.745c0-9.951-6.513-11.63-21.111-11.63h-7.801c-14.546,0-20.626,1.722-20.626,12.388v2.276c0,11.033,8.689,11.955,17.59,11.955
		c2.721,0,5.483-0.066,8.247-0.137c2.738-0.066,5.475-0.135,8.168-0.135c7.497,0,7.497,0.924,7.497,2.943v2.168
		c0,3.459,0,4.623-12.858,4.623h-8.291c-12.532,0-12.532-1.174-12.532-5.545v-2.854h-8.144v2.963
		c0,11.576,5.458,13.635,20.839,13.635h8.234c15.421,0,20.895-1.961,20.895-12.986v-2.438
		C358.112,75.332,355.899,69.509,345.345,69.509z"/>
	<path fill="#F54A42" d="M374.375,60.046h34.241V51.9h-38.341c-2.533,0-4.047,1.532-4.047,4.1v34.891
		c0,2.562,1.551,4.154,4.047,4.154h38.394V86.9h-34.294V60.046z"/>
	<rect x="372.287" y="67.774" fill="#F54A42" width="29.977" height="8.146"/>
	<path fill="#F54A42" d="M423.898,86.9v-35h-8.144v38.99c0,2.562,1.548,4.154,4.043,4.154h36.229V86.9H423.898z"/>
</g>
<g>
	<g>
		<defs>
			<rect id="SVGID_1_" x="3.997" y="1.998" width="135.06" height="135.06"/>
		</defs>
		<clipPath id="SVGID_2_">
			<use xlink:href="#SVGID_1_"  overflow="visible"/>
		</clipPath>
		<g clip-path="url(#SVGID_2_)">
			<defs>
				<rect id="SVGID_3_" x="3.999" y="2" width="135.058" height="135.058"/>
			</defs>
			<clipPath id="SVGID_4_">
				<use xlink:href="#SVGID_3_"  overflow="visible"/>
			</clipPath>
			
				<path clip-path="url(#SVGID_4_)" fill="none" stroke="#F54A42" stroke-width="3.75" stroke-linecap="round" stroke-miterlimit="10" d="
				M117.773,100.585c0-2.525,2.045-4.575,4.574-4.575c2.53,0,4.575,2.05,4.575,4.575c0,2.524-2.045,4.574-4.575,4.574
				C119.818,105.159,117.773,103.109,117.773,100.585z"/>
			
				<circle clip-path="url(#SVGID_4_)" fill="none" stroke="#F54A42" stroke-width="3.75" stroke-linecap="round" stroke-miterlimit="10" cx="20.708" cy="100.585" r="4.574"/>
			
				<circle clip-path="url(#SVGID_4_)" fill="none" stroke="#F54A42" stroke-width="3.75" stroke-linecap="round" stroke-miterlimit="10" cx="71.525" cy="11.563" r="4.574"/>
		</g>
		
			<polyline clip-path="url(#SVGID_2_)" fill="none" stroke="#F54A42" stroke-width="3.75" stroke-linecap="round" stroke-miterlimit="10" points="
			56.611,20.468 20.711,41.904 20.708,71.745 		"/>
		
			<polyline clip-path="url(#SVGID_2_)" fill="none" stroke="#F54A42" stroke-width="3.75" stroke-linecap="round" stroke-miterlimit="10" points="
			122.345,89.527 122.347,41.905 91.568,23.529 		"/>
		<g clip-path="url(#SVGID_2_)">
			<defs>
				<rect id="SVGID_5_" x="3.999" y="2" width="135.058" height="135.058"/>
			</defs>
			<clipPath id="SVGID_6_">
				<use xlink:href="#SVGID_5_"  overflow="visible"/>
			</clipPath>
			
				<polyline clip-path="url(#SVGID_6_)" fill="none" stroke="#F54A42" stroke-width="3.75" stroke-linecap="round" stroke-miterlimit="10" points="
				33.608,108.032 71.526,129.925 99.466,113.794 			"/>
		</g>
		
			<line clip-path="url(#SVGID_2_)" fill="none" stroke="#F54A42" stroke-width="3.75" stroke-linecap="round" stroke-miterlimit="10" x1="122.345" y1="89.527" x2="122.347" y2="92.96"/>
		
			<line clip-path="url(#SVGID_2_)" fill="none" stroke="#F54A42" stroke-width="3.75" stroke-linecap="round" stroke-miterlimit="10" x1="33.608" y1="108.032" x2="27.324" y2="104.309"/>
		
			<line clip-path="url(#SVGID_2_)" fill="none" stroke="#F54A42" stroke-width="3.75" stroke-linecap="round" stroke-miterlimit="10" x1="56.611" y1="20.468" x2="64.998" y2="15.46"/>
		<polygon clip-path="url(#SVGID_2_)" fill="#F54A42" points="45.554,51.996 45.554,63.851 62.352,63.851 62.352,97.449 
			70.326,97.449 70.326,51.996 		"/>
		<polygon clip-path="url(#SVGID_2_)" fill="#F54A42" points="97.5,51.996 72.446,51.996 72.446,97.446 80.425,97.446 
			80.425,63.851 97.5,63.851 		"/>
	</g>
</g>
</svg>
