<?xml version="1.0" encoding="UTF-8" standalone="no"?>
<svg width="512px" height="512px" viewBox="0 0 512 512" version="1.1" xmlns="http://www.w3.org/2000/svg" xmlns:xlink="http://www.w3.org/1999/xlink" xmlns:sketch="http://www.bohemiancoding.com/sketch/ns">
    <!-- Generator: Sketch 3.2.2 (9983) - http://www.bohemiancoding.com/sketch -->
    <title>Slice 1</title>
    <desc>Created with Sketch.</desc>
    <defs></defs>
    <g id="Page-1" stroke="none" stroke-width="1" fill="none" fill-rule="evenodd" sketch:type="MSPage">
        <g id="nodejs-dark" sketch:type="MSLayerGroup">
            <path d="M0,0 L510.268746,0 L510.268746,512 L0,512 L0,0 Z" id="Fill-1" fill="#2D2E2B" sketch:type="MSShapeGroup"></path>
            <path d="M128.336271,219.971886 C128.336271,218.794971 127.717966,217.7136 126.702644,217.129486 L99.6534237,201.549486 C99.195661,201.280229 98.6814915,201.139086 98.1629831,201.117371 L97.8831186,201.117371 C97.3667797,201.139086 96.8547797,201.280229 96.3905085,201.549486 L69.3391186,217.129486 C68.3303051,217.7136 67.703322,218.794971 67.703322,219.971886 L67.7618983,261.928229 C67.7618983,262.512343 68.0656271,263.0552 68.5776271,263.341829 C69.0809492,263.641486 69.7014237,263.641486 70.2004068,263.341829 L86.2785085,254.126286 C87.2938305,253.522629 87.9121356,252.456457 87.9121356,251.2904 L87.9121356,231.688914 C87.9121356,230.518514 88.5326102,229.437143 89.5435932,228.857371 L96.3905085,224.909714 C96.900339,224.616571 97.4578983,224.471086 98.0284746,224.471086 C98.5838644,224.471086 99.1566102,224.616571 99.6534237,224.909714 L106.496,228.857371 C107.509153,229.437143 108.129627,230.518514 108.129627,231.688914 L108.129627,251.2904 C108.129627,252.456457 108.75661,253.529143 109.767593,254.126286 L125.839186,263.341829 C126.342508,263.641486 126.971661,263.641486 127.472814,263.341829 C127.969627,263.0552 128.284203,262.512343 128.284203,261.928229 L128.336271,219.971886" id="Fill-3" fill="#FFFFFF" sketch:type="MSShapeGroup"></path>
            <path d="M270.270915,241.818629 C270.270915,242.1096 270.114712,242.381029 269.863051,242.526514 L260.571119,247.8856 C260.319458,248.031086 260.007051,248.031086 259.75539,247.8856 L250.463458,242.526514 C250.209627,242.381029 250.055593,242.1096 250.055593,241.818629 L250.055593,231.080914 C250.055593,230.787771 250.209627,230.518514 250.463458,230.370857 L259.75322,225.000914 C260.007051,224.855429 260.319458,224.855429 260.571119,225.000914 L269.863051,230.370857 C270.114712,230.518514 270.270915,230.787771 270.270915,231.080914 L270.270915,241.818629 L270.270915,241.818629 Z M272.781017,162.2944 C272.275525,162.014286 271.65722,162.0208 271.158237,162.313943 C270.659254,162.607086 270.351186,163.143429 270.351186,163.7232 L270.351186,205.273486 C270.351186,205.681714 270.134237,206.061714 269.78061,206.265829 C269.426983,206.469943 268.990915,206.469943 268.637288,206.265829 L261.861966,202.359429 C260.850983,201.775314 259.607864,201.777486 258.596881,202.359429 L231.534644,217.991543 C230.523661,218.575657 229.901017,219.654857 229.901017,220.823086 L229.901017,252.091657 C229.901017,253.262057 230.523661,254.341257 231.534644,254.925371 L258.594712,270.568343 C259.605695,271.152457 260.850983,271.152457 261.864136,270.568343 L288.928542,254.925371 C289.939525,254.341257 290.562169,253.262057 290.562169,252.091657 L290.562169,174.146057 C290.562169,172.960457 289.92,171.868229 288.885153,171.290629 L272.781017,162.2944 L272.781017,162.2944 Z" id="Fill-4" fill="#FFFFFF" sketch:type="MSShapeGroup"></path>
            <path d="M369.598915,230.798629 C370.605559,230.214514 371.223864,229.137486 371.223864,227.971429 L371.223864,220.393143 C371.223864,219.229257 370.605559,218.150057 369.596746,217.565943 L342.710237,201.940343 C341.697085,201.351886 340.449627,201.349714 339.434305,201.936 L312.382915,217.568114 C311.371932,218.152229 310.749288,219.231429 310.749288,220.399657 L310.749288,251.659543 C310.749288,252.836457 311.38061,253.92 312.400271,254.501943 L339.28461,269.8344 C340.276068,270.401143 341.490983,270.405486 342.488949,269.851771 L358.749288,260.8056 C359.265627,260.518971 359.586712,259.976114 359.588881,259.387657 C359.59322,258.797029 359.278644,258.252 358.768814,257.958857 L331.546034,242.320229 C331.036203,242.027086 330.723797,241.4864 330.723797,240.900114 L330.723797,231.102629 C330.723797,230.518514 331.036203,229.977829 331.541695,229.686857 L340.015729,224.798971 C340.519051,224.505829 341.141695,224.505829 341.645017,224.798971 L350.12339,229.686857 C350.628881,229.977829 350.941288,230.518514 350.941288,231.102629 L350.941288,238.8112 C350.941288,239.397486 351.253695,239.938171 351.759186,240.229143 C352.266847,240.522286 352.889492,240.520114 353.394983,240.226971 L369.598915,230.798629" id="Fill-5" fill="#FFFFFF" sketch:type="MSShapeGroup"></path>
            <path d="M177.544678,201.770971 C178.555661,201.186857 179.800949,201.186857 180.811932,201.770971 L207.869831,217.398743 C208.880814,217.982857 209.503458,219.064229 209.503458,220.232457 L209.503458,251.514057 C209.503458,252.682286 208.880814,253.761486 207.869831,254.347771 L180.811932,269.988571 C179.800949,270.572686 178.555661,270.572686 177.542508,269.988571 L150.491119,254.347771 C149.480136,253.761486 148.857492,252.682286 148.857492,251.514057 L148.857492,220.232457 C148.857492,219.064229 149.480136,217.982857 150.493288,217.398743 L177.544678,201.770971" id="Fill-6" fill="#78B742" sketch:type="MSShapeGroup"></path>
            <path d="M422.135322,270.433714 C421.202441,270.433714 420.276068,270.190514 419.460339,269.717143 L410.940746,264.672914 C409.669424,263.960686 410.289898,263.7088 410.70861,263.561143 C412.407322,262.972686 412.750102,262.835886 414.561627,261.8088 C414.750373,261.7024 414.999864,261.741486 415.195119,261.856571 L421.738305,265.7456 C421.976949,265.878057 422.311051,265.878057 422.530169,265.7456 L448.04339,251.005943 C448.282034,250.869143 448.433898,250.597714 448.433898,250.315429 L448.433898,220.842629 C448.433898,220.556 448.282034,220.286743 448.039051,220.139086 L422.534508,205.412457 C422.298034,205.273486 421.985627,205.273486 421.746983,205.412457 L396.248949,220.143429 C396.001627,220.286743 395.845424,220.562514 395.845424,220.842629 L395.845424,250.315429 C395.845424,250.597714 396.001627,250.862629 396.24678,250.997257 L403.236881,255.038286 C407.029153,256.936114 409.352678,254.701714 409.352678,252.456457 L409.352678,223.357143 C409.352678,222.946743 409.682441,222.6232 410.092475,222.6232 L413.329356,222.6232 C413.732881,222.6232 414.066983,222.946743 414.066983,223.357143 L414.066983,252.456457 C414.066983,257.5224 411.311729,260.427771 406.512814,260.427771 C405.037559,260.427771 403.876881,260.427771 400.635661,258.8296 L393.944949,254.973143 C392.291797,254.017714 391.269966,252.228457 391.269966,250.315429 L391.269966,220.842629 C391.269966,218.9296 392.291797,217.140343 393.944949,216.189257 L419.460339,201.432229 C421.074441,200.518057 423.220068,200.518057 424.821153,201.432229 L450.334373,216.189257 C451.987525,217.144686 453.013695,218.9296 453.013695,220.842629 L453.013695,250.315429 C453.013695,252.228457 451.987525,254.0112 450.334373,254.973143 L424.821153,269.717143 C424.005424,270.190514 423.08122,270.433714 422.135322,270.433714" id="Fill-7" fill="#78B742" sketch:type="MSShapeGroup"></path>
            <path d="M430.017085,250.130857 C418.850712,250.130857 416.512,244.999771 416.512,240.698171 C416.512,240.287771 416.841763,239.962057 417.249627,239.962057 L420.549424,239.962057 C420.918237,239.962057 421.224136,240.226971 421.282712,240.587429 C421.779525,243.9488 423.265627,245.644686 430.017085,245.644686 C435.390915,245.644686 437.679729,244.428686 437.679729,241.573257 C437.679729,239.927314 437.031051,238.706971 428.678508,237.888343 C421.697085,237.197829 417.379797,235.653943 417.379797,230.062514 C417.379797,224.909714 421.71878,221.837143 428.993085,221.837143 C437.167729,221.837143 441.211661,224.677371 441.723661,230.7704 C441.743186,230.978857 441.669424,231.1808 441.530576,231.337143 C441.389559,231.4848 441.194305,231.573829 440.990373,231.573829 L437.677559,231.573829 C437.33478,231.573829 437.031051,231.328457 436.961627,230.996229 C436.167593,227.458971 434.234576,226.329829 428.993085,226.329829 C423.12461,226.329829 422.44339,228.375314 422.44339,229.908343 C422.44339,231.767086 423.248271,232.307771 431.171254,233.356571 C439.011797,234.394514 442.736814,235.8624 442.736814,241.377829 C442.736814,246.9432 438.10278,250.130857 430.017085,250.130857" id="Fill-8" fill="#78B742" sketch:type="MSShapeGroup"></path>
            <path d="M340.673085,229.335086 C340.868339,229.222171 341.106983,229.222171 341.300068,229.335086 L346.493831,232.333829 C346.686915,232.446743 346.806237,232.653029 346.806237,232.876686 L346.806237,238.878514 C346.806237,239.102171 346.686915,239.310629 346.493831,239.421371 L341.300068,242.420114 C341.106983,242.533029 340.868339,242.533029 340.673085,242.420114 L335.485831,239.421371 C335.290576,239.310629 335.171254,239.102171 335.171254,238.878514 L335.171254,232.876686 C335.171254,232.653029 335.290576,232.446743 335.485831,232.333829 L340.673085,229.335086" id="Fill-9" fill="#78B742" sketch:type="MSShapeGroup"></path>
        </g>
    </g>
</svg>