<?xml version="1.0" encoding="UTF-8" standalone="no"?>
<svg width="512px" height="512px" viewBox="0 0 512 512" version="1.1" xmlns="http://www.w3.org/2000/svg" xmlns:xlink="http://www.w3.org/1999/xlink" xmlns:sketch="http://www.bohemiancoding.com/sketch/ns">
    <!-- Generator: Sketch 3.2.2 (9983) - http://www.bohemiancoding.com/sketch -->
    <title>Slice 1</title>
    <desc>Created with Sketch.</desc>
    <defs></defs>
    <g id="Page-1" stroke="none" stroke-width="1" fill="none" fill-rule="evenodd" sketch:type="MSPage">
        <path d="M0.130169492,0.270285714 L512.130169,0.270285714 L512.130169,512.270286 L0.130169492,512.270286 L0.130169492,0.270285714 Z" id="Fill-1" fill="#78B742" sketch:type="MSShapeGroup"></path>
        <g id="nodejs-green" sketch:type="MSLayerGroup" transform="translate(67.000000, 201.000000)">
            <path d="M61.3362712,57.9718857 C61.3362712,56.7949714 60.7179661,55.7136 59.7026441,55.1294857 L32.6534237,39.5494857 C32.195661,39.2802286 31.6814915,39.1390857 31.1629831,39.1173714 L30.8831186,39.1173714 C30.3667797,39.1390857 29.8547797,39.2802286 29.3905085,39.5494857 L2.33911864,55.1294857 C1.33030508,55.7136 0.703322034,56.7949714 0.703322034,57.9718857 L0.761898305,99.9282286 C0.761898305,100.512343 1.06562712,101.0552 1.57762712,101.341829 C2.08094915,101.641486 2.70142373,101.641486 3.20040678,101.341829 L19.2785085,92.1262857 C20.2938305,91.5226286 20.9121356,90.4564571 20.9121356,89.2904 L20.9121356,69.6889143 C20.9121356,68.5185143 21.5326102,67.4371429 22.5435932,66.8573714 L29.3905085,62.9097143 C29.900339,62.6165714 30.4578983,62.4710857 31.0284746,62.4710857 C31.5838644,62.4710857 32.1566102,62.6165714 32.6534237,62.9097143 L39.496,66.8573714 C40.5091525,67.4371429 41.1296271,68.5185143 41.1296271,69.6889143 L41.1296271,89.2904 C41.1296271,90.4564571 41.7566102,91.5291429 42.7675932,92.1262857 L58.8391864,101.341829 C59.3425085,101.641486 59.971661,101.641486 60.4728136,101.341829 C60.9696271,101.0552 61.2842034,100.512343 61.2842034,99.9282286 L61.3362712,57.9718857" id="Fill-3" fill="#2D2E2B" sketch:type="MSShapeGroup"></path>
            <path d="M203.270915,79.8186286 C203.270915,80.1096 203.114712,80.3810286 202.863051,80.5265143 L193.571119,85.8856 C193.319458,86.0310857 193.007051,86.0310857 192.75539,85.8856 L183.463458,80.5265143 C183.209627,80.3810286 183.055593,80.1096 183.055593,79.8186286 L183.055593,69.0809143 C183.055593,68.7877714 183.209627,68.5185143 183.463458,68.3708571 L192.75322,63.0009143 C193.007051,62.8554286 193.319458,62.8554286 193.571119,63.0009143 L202.863051,68.3708571 C203.114712,68.5185143 203.270915,68.7877714 203.270915,69.0809143 L203.270915,79.8186286 L203.270915,79.8186286 Z M205.781017,0.2944 C205.275525,0.0142857143 204.65722,0.0208 204.158237,0.313942857 C203.659254,0.607085714 203.351186,1.14342857 203.351186,1.7232 L203.351186,43.2734857 C203.351186,43.6817143 203.134237,44.0617143 202.78061,44.2658286 C202.426983,44.4699429 201.990915,44.4699429 201.637288,44.2658286 L194.861966,40.3594286 C193.850983,39.7753143 192.607864,39.7774857 191.596881,40.3594286 L164.534644,55.9915429 C163.523661,56.5756571 162.901017,57.6548571 162.901017,58.8230857 L162.901017,90.0916571 C162.901017,91.2620571 163.523661,92.3412571 164.534644,92.9253714 L191.594712,108.568343 C192.605695,109.152457 193.850983,109.152457 194.864136,108.568343 L221.928542,92.9253714 C222.939525,92.3412571 223.562169,91.2620571 223.562169,90.0916571 L223.562169,12.1460571 C223.562169,10.9604571 222.92,9.86822857 221.885153,9.29062857 L205.781017,0.2944 L205.781017,0.2944 Z" id="Fill-4" fill="#2D2E2B" sketch:type="MSShapeGroup"></path>
            <path d="M302.598915,68.7986286 C303.605559,68.2145143 304.223864,67.1374857 304.223864,65.9714286 L304.223864,58.3931429 C304.223864,57.2292571 303.605559,56.1500571 302.596746,55.5659429 L275.710237,39.9403429 C274.697085,39.3518857 273.449627,39.3497143 272.434305,39.936 L245.382915,55.5681143 C244.371932,56.1522286 243.749288,57.2314286 243.749288,58.3996571 L243.749288,89.6595429 C243.749288,90.8364571 244.38061,91.92 245.400271,92.5019429 L272.28461,107.8344 C273.276068,108.401143 274.490983,108.405486 275.488949,107.851771 L291.749288,98.8056 C292.265627,98.5189714 292.586712,97.9761143 292.588881,97.3876571 C292.59322,96.7970286 292.278644,96.252 291.768814,95.9588571 L264.546034,80.3202286 C264.036203,80.0270857 263.723797,79.4864 263.723797,78.9001143 L263.723797,69.1026286 C263.723797,68.5185143 264.036203,67.9778286 264.541695,67.6868571 L273.015729,62.7989714 C273.519051,62.5058286 274.141695,62.5058286 274.645017,62.7989714 L283.12339,67.6868571 C283.628881,67.9778286 283.941288,68.5185143 283.941288,69.1026286 L283.941288,76.8112 C283.941288,77.3974857 284.253695,77.9381714 284.759186,78.2291429 C285.266847,78.5222857 285.889492,78.5201143 286.394983,78.2269714 L302.598915,68.7986286" id="Fill-5" fill="#2D2E2B" sketch:type="MSShapeGroup"></path>
            <path d="M110.544678,39.7709714 C111.555661,39.1868571 112.800949,39.1868571 113.811932,39.7709714 L140.869831,55.3987429 C141.880814,55.9828571 142.503458,57.0642286 142.503458,58.2324571 L142.503458,89.5140571 C142.503458,90.6822857 141.880814,91.7614857 140.869831,92.3477714 L113.811932,107.988571 C112.800949,108.572686 111.555661,108.572686 110.542508,107.988571 L83.4911186,92.3477714 C82.4801356,91.7614857 81.8574915,90.6822857 81.8574915,89.5140571 L81.8574915,58.2324571 C81.8574915,57.0642286 82.4801356,55.9828571 83.4932881,55.3987429 L110.544678,39.7709714" id="Fill-6" fill="#FFFFFF" sketch:type="MSShapeGroup"></path>
            <path d="M355.135322,108.433714 C354.202441,108.433714 353.276068,108.190514 352.460339,107.717143 L343.940746,102.672914 C342.669424,101.960686 343.289898,101.7088 343.70861,101.561143 C345.407322,100.972686 345.750102,100.835886 347.561627,99.8088 C347.750373,99.7024 347.999864,99.7414857 348.195119,99.8565714 L354.738305,103.7456 C354.976949,103.878057 355.311051,103.878057 355.530169,103.7456 L381.04339,89.0059429 C381.282034,88.8691429 381.433898,88.5977143 381.433898,88.3154286 L381.433898,58.8426286 C381.433898,58.556 381.282034,58.2867429 381.039051,58.1390857 L355.534508,43.4124571 C355.298034,43.2734857 354.985627,43.2734857 354.746983,43.4124571 L329.248949,58.1434286 C329.001627,58.2867429 328.845424,58.5625143 328.845424,58.8426286 L328.845424,88.3154286 C328.845424,88.5977143 329.001627,88.8626286 329.24678,88.9972571 L336.236881,93.0382857 C340.029153,94.9361143 342.352678,92.7017143 342.352678,90.4564571 L342.352678,61.3571429 C342.352678,60.9467429 342.682441,60.6232 343.092475,60.6232 L346.329356,60.6232 C346.732881,60.6232 347.066983,60.9467429 347.066983,61.3571429 L347.066983,90.4564571 C347.066983,95.5224 344.311729,98.4277714 339.512814,98.4277714 C338.037559,98.4277714 336.876881,98.4277714 333.635661,96.8296 L326.944949,92.9731429 C325.291797,92.0177143 324.269966,90.2284571 324.269966,88.3154286 L324.269966,58.8426286 C324.269966,56.9296 325.291797,55.1403429 326.944949,54.1892571 L352.460339,39.4322286 C354.074441,38.5180571 356.220068,38.5180571 357.821153,39.4322286 L383.334373,54.1892571 C384.987525,55.1446857 386.013695,56.9296 386.013695,58.8426286 L386.013695,88.3154286 C386.013695,90.2284571 384.987525,92.0112 383.334373,92.9731429 L357.821153,107.717143 C357.005424,108.190514 356.08122,108.433714 355.135322,108.433714" id="Fill-7" fill="#FFFFFF" sketch:type="MSShapeGroup"></path>
            <path d="M363.017085,88.1308571 C351.850712,88.1308571 349.512,82.9997714 349.512,78.6981714 C349.512,78.2877714 349.841763,77.9620571 350.249627,77.9620571 L353.549424,77.9620571 C353.918237,77.9620571 354.224136,78.2269714 354.282712,78.5874286 C354.779525,81.9488 356.265627,83.6446857 363.017085,83.6446857 C368.390915,83.6446857 370.679729,82.4286857 370.679729,79.5732571 C370.679729,77.9273143 370.031051,76.7069714 361.678508,75.8883429 C354.697085,75.1978286 350.379797,73.6539429 350.379797,68.0625143 C350.379797,62.9097143 354.71878,59.8371429 361.993085,59.8371429 C370.167729,59.8371429 374.211661,62.6773714 374.723661,68.7704 C374.743186,68.9788571 374.669424,69.1808 374.530576,69.3371429 C374.389559,69.4848 374.194305,69.5738286 373.990373,69.5738286 L370.677559,69.5738286 C370.33478,69.5738286 370.031051,69.3284571 369.961627,68.9962286 C369.167593,65.4589714 367.234576,64.3298286 361.993085,64.3298286 C356.12461,64.3298286 355.44339,66.3753143 355.44339,67.9083429 C355.44339,69.7670857 356.248271,70.3077714 364.171254,71.3565714 C372.011797,72.3945143 375.736814,73.8624 375.736814,79.3778286 C375.736814,84.9432 371.10278,88.1308571 363.017085,88.1308571" id="Fill-8" fill="#FFFFFF" sketch:type="MSShapeGroup"></path>
            <path d="M273.673085,67.3350857 C273.868339,67.2221714 274.106983,67.2221714 274.300068,67.3350857 L279.493831,70.3338286 C279.686915,70.4467429 279.806237,70.6530286 279.806237,70.8766857 L279.806237,76.8785143 C279.806237,77.1021714 279.686915,77.3106286 279.493831,77.4213714 L274.300068,80.4201143 C274.106983,80.5330286 273.868339,80.5330286 273.673085,80.4201143 L268.485831,77.4213714 C268.290576,77.3106286 268.171254,77.1021714 268.171254,76.8785143 L268.171254,70.8766857 C268.171254,70.6530286 268.290576,70.4467429 268.485831,70.3338286 L273.673085,67.3350857" id="Fill-9" fill="#FFFFFF" sketch:type="MSShapeGroup"></path>
        </g>
    </g>
</svg>