<?xml version="1.0" encoding="UTF-8" standalone="no"?>
<svg width="169px" height="48px" viewBox="0 0 169 48" version="1.1" xmlns="http://www.w3.org/2000/svg" xmlns:xlink="http://www.w3.org/1999/xlink" xmlns:sketch="http://www.bohemiancoding.com/sketch/ns">
    <!-- Generator: Sketch 3.2.2 (9983) - http://www.bohemiancoding.com/sketch -->
    <title>nodejs-light</title>
    <desc>Created with Sketch.</desc>
    <defs></defs>
    <g id="Page-1" stroke="none" stroke-width="1" fill="none" fill-rule="evenodd" sketch:type="MSPage">
        <g id="nodejs-light" sketch:type="MSLayerGroup">
            <g id="Group-4" fill="#2D2E2B" sketch:type="MSShapeGroup">
                <path d="M26.4454194,25.8795294 C26.4454194,25.3694118 26.1757419,24.9007059 25.7329032,24.6475294 L13.9352258,17.8945882 C13.7355699,17.7778824 13.5113118,17.7167059 13.2851613,17.7072941 L13.1630968,17.7072941 C12.9378925,17.7167059 12.7145806,17.7778824 12.512086,17.8945882 L0.713462366,24.6475294 C0.273462366,24.9007059 0,25.3694118 0,25.8795294 L0.0255483871,44.0649412 C0.0255483871,44.3181176 0.158021505,44.5534118 0.381333333,44.6776471 C0.600860215,44.8075294 0.871483871,44.8075294 1.08911828,44.6776471 L8.10167742,40.6832941 C8.54451613,40.4216471 8.81419355,39.9595294 8.81419355,39.4541176 L8.81419355,30.9571765 C8.81419355,30.4508235 9.0848172,29.9821176 9.52576344,29.7308235 L12.512086,28.0197647 C12.7344516,27.8927059 12.9776344,27.8296471 13.2264946,27.8296471 C13.4687312,27.8296471 13.7185376,27.8927059 13.9352258,28.0197647 L16.9196559,29.7308235 C17.3615484,29.9821176 17.632172,30.4508235 17.632172,30.9571765 L17.632172,39.4541176 C17.632172,39.9595294 17.9056344,40.4244706 18.3465806,40.6832941 L25.3563011,44.6776471 C25.575828,44.8075294 25.8502366,44.8075294 26.0688172,44.6776471 C26.2855054,44.5534118 26.4227097,44.3181176 26.4227097,44.0649412 L26.4454194,25.8795294" id="Fill-1"></path>
                <path d="M88.3510538,35.3487059 C88.3510538,35.4748235 88.2829247,35.5924706 88.1731613,35.6555294 L84.1204301,37.9783529 C84.0106667,38.0414118 83.8744086,38.0414118 83.7646452,37.9783529 L79.711914,35.6555294 C79.6012043,35.5924706 79.5340215,35.4748235 79.5340215,35.3487059 L79.5340215,30.6945882 C79.5340215,30.5675294 79.6012043,30.4508235 79.711914,30.3868235 L83.7636989,28.0592941 C83.8744086,27.9952941 84.0106667,27.9952941 84.1204301,28.0592941 L88.1731613,30.3868235 C88.2829247,30.4508235 88.3510538,30.5675294 88.3510538,30.6945882 L88.3510538,35.3487059 L88.3510538,35.3487059 Z M89.4458495,0.88 C89.2253763,0.758588235 88.9556989,0.760470588 88.7380645,0.888470588 C88.5204301,1.01552941 88.3860645,1.248 88.3860645,1.49929412 L88.3860645,19.5087059 C88.3860645,19.6856471 88.2914409,19.8503529 88.1372043,19.9388235 C87.9829677,20.0272941 87.7927742,20.0272941 87.6385376,19.9388235 L84.6834409,18.2456471 C84.2424946,17.9924706 83.7003011,17.9934118 83.2593548,18.2456471 L71.456,25.0211765 C71.0150538,25.2743529 70.7434839,25.7421176 70.7434839,26.2484706 L70.7434839,39.8014118 C70.7434839,40.3087059 71.0150538,40.7764706 71.456,41.0296471 L83.2584086,47.8098824 C83.6993548,48.0630588 84.2424946,48.0630588 84.6843871,47.8098824 L96.4886882,41.0296471 C96.9296344,40.7764706 97.2012043,40.3087059 97.2012043,39.8014118 L97.2012043,6.01694118 C97.2012043,5.50305882 96.9211183,5.02964706 96.4697634,4.77835294 L89.4458495,0.88 L89.4458495,0.88 Z" id="Fill-3"></path>
            </g>
            <path d="M131.673548,30.5722353 C132.112602,30.3190588 132.38228,29.8522353 132.38228,29.3468235 L132.38228,26.0621176 C132.38228,25.5576471 132.112602,25.0898824 131.672602,24.8367059 L119.945892,18.064 C119.504,17.8089412 118.959914,17.808 118.517075,18.0621176 L106.718452,24.8376471 C106.277505,25.0908235 106.005935,25.5585882 106.005935,26.0649412 L106.005935,39.6141176 C106.005935,40.1242353 106.28129,40.5938824 106.726022,40.8461176 L118.451785,47.4917647 C118.884215,47.7374118 119.414108,47.7392941 119.849376,47.4992941 L126.941419,43.5783529 C127.166624,43.4541176 127.306667,43.2188235 127.307613,42.9637647 C127.309505,42.7077647 127.172301,42.4715294 126.949935,42.3444706 L115.076559,35.5651765 C114.854194,35.4390588 114.717935,35.2047059 114.717935,34.9505882 L114.717935,30.704 C114.717935,30.4508235 114.854194,30.2164706 115.074667,30.0903529 L118.770667,27.9717647 C118.990194,27.8447059 119.261763,27.8447059 119.48129,27.9717647 L123.179183,30.0903529 C123.399656,30.2164706 123.535914,30.4508235 123.535914,30.704 L123.535914,34.0451765 C123.535914,34.2992941 123.672172,34.5336471 123.892645,34.6597647 C124.114065,34.7868235 124.385634,34.7858824 124.606108,34.6588235 L131.673548,30.5722353" id="Fill-5" fill="#2D2E2B" sketch:type="MSShapeGroup"></path>
            <path d="M47.907957,17.9905882 C48.3489032,17.7374118 48.892043,17.7374118 49.3329892,17.9905882 L61.1344516,24.7642353 C61.5753978,25.0174118 61.8469677,25.4851765 61.8469677,25.9924706 L61.8469677,39.5510588 C61.8469677,40.0574118 61.5753978,40.5251765 61.1344516,40.7783529 L49.3329892,47.5585882 C48.892043,47.8117647 48.3489032,47.8117647 47.9070108,47.5585882 L36.1083871,40.7783529 C35.6674409,40.5251765 35.395871,40.0574118 35.395871,39.5510588 L35.395871,25.9924706 C35.395871,25.4851765 35.6674409,25.0174118 36.1093333,24.7642353 L47.907957,17.9905882" id="Fill-6" fill="#78B742" sketch:type="MSShapeGroup"></path>
            <path d="M154.587613,47.7515294 C154.180731,47.7515294 153.776688,47.6461176 153.420903,47.4409412 L149.705032,45.2545882 C149.150538,44.9458824 149.421161,44.8367059 149.603785,44.7727059 C150.344688,44.5176471 150.494194,44.4583529 151.284301,44.0131765 C151.366624,43.9670588 151.475441,43.984 151.560602,44.0338824 L154.414452,45.7195294 C154.518538,45.7769412 154.664258,45.7769412 154.759828,45.7195294 L165.88757,39.3308235 C165.991656,39.2715294 166.057892,39.1538824 166.057892,39.0315294 L166.057892,26.2569412 C166.057892,26.1327059 165.991656,26.0150588 165.885677,25.952 L154.76172,19.5689412 C154.658581,19.5087059 154.522323,19.5087059 154.418237,19.5689412 L143.297118,25.9538824 C143.189247,26.0150588 143.121118,26.1355294 143.121118,26.2569412 L143.121118,39.0315294 C143.121118,39.1538824 143.189247,39.2687059 143.296172,39.3270588 L146.344946,41.0785882 C147.998968,41.9011765 149.012387,40.9327059 149.012387,39.9595294 L149.012387,27.3468235 C149.012387,27.1689412 149.156215,27.0287059 149.335054,27.0287059 L150.746839,27.0287059 C150.922839,27.0287059 151.068559,27.1689412 151.068559,27.3468235 L151.068559,39.9595294 C151.068559,42.1552941 149.866839,43.4145882 147.773763,43.4145882 C147.130323,43.4145882 146.624086,43.4145882 145.210409,42.7218824 L142.292215,41.0503529 C141.571183,40.6362353 141.125505,39.8607059 141.125505,39.0315294 L141.125505,26.2569412 C141.125505,25.4277647 141.571183,24.6522353 142.292215,24.24 L153.420903,17.8437647 C154.124903,17.4475294 155.060731,17.4475294 155.759054,17.8437647 L166.886796,24.24 C167.607828,24.6541176 168.055398,25.4277647 168.055398,26.2569412 L168.055398,39.0315294 C168.055398,39.8607059 167.607828,40.6334118 166.886796,41.0503529 L155.759054,47.4409412 C155.403269,47.6461176 155.000172,47.7515294 154.587613,47.7515294" id="Fill-7" fill="#78B742" sketch:type="MSShapeGroup"></path>
            <path d="M158.02529,38.9515294 C153.155011,38.9515294 152.134968,36.7275294 152.134968,34.8630588 C152.134968,34.6851765 152.278796,34.544 152.456688,34.544 L153.895914,34.544 C154.056774,34.544 154.190194,34.6588235 154.215742,34.8150588 C154.43243,36.272 155.080602,37.0070588 158.02529,37.0070588 C160.369118,37.0070588 161.367398,36.48 161.367398,35.2423529 C161.367398,34.5289412 161.084473,34 157.441462,33.6451765 C154.396473,33.3458824 152.513462,32.6767059 152.513462,30.2531765 C152.513462,28.0197647 154.405935,26.688 157.578667,26.688 C161.144086,26.688 162.907871,27.9190588 163.131183,30.56 C163.139699,30.6503529 163.107527,30.7378824 163.046968,30.8056471 C162.985462,30.8696471 162.900301,30.9082353 162.811355,30.9082353 L161.366452,30.9082353 C161.216946,30.9082353 161.084473,30.8018824 161.054194,30.6578824 C160.707871,29.1247059 159.864774,28.6352941 157.578667,28.6352941 C155.019097,28.6352941 154.721978,29.5218824 154.721978,30.1863529 C154.721978,30.992 155.073032,31.2263529 158.528688,31.6809412 C161.948387,32.1308235 163.573075,32.7670588 163.573075,35.1576471 C163.573075,37.5698824 161.550968,38.9515294 158.02529,38.9515294" id="Fill-8" fill="#78B742" sketch:type="MSShapeGroup"></path>
            <path d="M119.057376,29.9378824 C119.142538,29.8889412 119.246624,29.8889412 119.330839,29.9378824 L121.596129,31.2376471 C121.680344,31.2865882 121.732387,31.376 121.732387,31.4729412 L121.732387,34.0743529 C121.732387,34.1712941 121.680344,34.2616471 121.596129,34.3105882 L119.330839,35.6094118 C119.246624,35.6583529 119.142538,35.6583529 119.057376,35.6094118 L116.794925,34.3105882 C116.709763,34.2616471 116.65772,34.1712941 116.65772,34.0743529 L116.65772,31.4729412 C116.65772,31.376 116.709763,31.2865882 116.794925,31.2376471 L119.057376,29.9378824" id="Fill-9" fill="#78B742" sketch:type="MSShapeGroup"></path>
        </g>
    </g>
</svg>