<?xml version="1.0" encoding="UTF-8" standalone="no"?>
<svg width="512px" height="512px" viewBox="0 0 512 512" version="1.1" xmlns="http://www.w3.org/2000/svg" xmlns:xlink="http://www.w3.org/1999/xlink" xmlns:sketch="http://www.bohemiancoding.com/sketch/ns">
    <!-- Generator: Sketch 3.2.2 (9983) - http://www.bohemiancoding.com/sketch -->
    <title>Group 3</title>
    <desc>Created with Sketch.</desc>
    <defs>
        <path id="path-1" d="M64.336,18.972 C64.336,17.796 63.716,16.712 62.704,16.128 L35.652,0.548 C35.196,0.28 34.68,0.14 34.164,0.116 L33.884,0.116 C33.368,0.14 32.856,0.28 32.392,0.548 L5.34,16.128 C4.332,16.712 3.704,17.796 3.704,18.972 L3.76,60.928 C3.76,61.512 4.064,62.056 4.576,62.34 C5.08,62.64 5.7,62.64 6.2,62.34 L22.28,53.128 C23.292,52.524 23.912,51.456 23.912,50.292 L23.912,30.688 C23.912,29.52 24.532,28.436 25.544,27.856 L32.392,23.908 C32.9,23.616 33.456,23.472 34.028,23.472 C34.584,23.472 35.156,23.616 35.652,23.908 L42.496,27.856 C43.508,28.436 44.128,29.52 44.128,30.688 L44.128,50.292 C44.128,51.456 44.756,52.528 45.768,53.128 L61.84,62.34 C62.344,62.64 62.972,62.64 63.472,62.34 C63.968,62.056 64.284,61.512 64.284,60.928 L64.336,18.972 L64.336,18.972 Z"></path>
        <path d="M42.272,80.82 C42.272,81.108 42.116,81.38 41.864,81.528 L32.572,86.884 C32.32,87.032 32.008,87.032 31.756,86.884 L22.464,81.528 C22.208,81.38 22.056,81.108 22.056,80.82 L22.056,70.08 C22.056,69.788 22.208,69.52 22.464,69.372 L31.752,64 C32.008,63.856 32.32,63.856 32.572,64 L41.864,69.372 C42.116,69.52 42.272,69.788 42.272,70.08 L42.272,80.82 L42.272,80.82 Z M44.78,1.296 C44.276,1.016 43.656,1.02 43.16,1.312 C42.66,1.608 42.352,2.144 42.352,2.724 L42.352,44.272 C42.352,44.68 42.136,45.06 41.78,45.264 C41.428,45.468 40.992,45.468 40.636,45.264 L33.86,41.36 C32.852,40.776 31.608,40.776 30.596,41.36 L3.536,56.992 C2.524,57.576 1.9,58.656 1.9,59.824 L1.9,91.092 C1.9,92.264 2.524,93.34 3.536,93.924 L30.596,109.568 C31.604,110.152 32.852,110.152 33.864,109.568 L60.928,93.924 C61.94,93.34 62.564,92.264 62.564,91.092 L62.564,13.148 C62.564,11.96 61.92,10.868 60.884,10.292 L44.78,1.296 L44.78,1.296 Z" id="path-3"></path>
        <path id="path-5" d="M61.6,29.8 C62.604,29.216 63.224,28.136 63.224,26.972 L63.224,19.392 C63.224,18.228 62.604,17.152 61.596,16.564 L34.712,0.94 C33.696,0.352 32.448,0.348 31.436,0.936 L4.384,16.568 C3.372,17.152 2.748,18.232 2.748,19.4 L2.748,50.66 C2.748,51.836 3.38,52.92 4.4,53.5 L31.284,68.836 C32.276,69.4 33.492,69.404 34.488,68.852 L50.748,59.804 C51.264,59.52 51.588,58.976 51.588,58.388 C51.592,57.796 51.28,57.252 50.768,56.96 L23.548,41.32 C23.036,41.028 22.724,40.488 22.724,39.9 L22.724,30.104 C22.724,29.52 23.036,28.976 23.54,28.688 L32.016,23.8 C32.52,23.504 33.14,23.504 33.644,23.8 L42.124,28.688 C42.628,28.976 42.94,29.52 42.94,30.104 L42.94,37.812 C42.94,38.396 43.252,38.94 43.76,39.228 C44.268,39.524 44.888,39.52 45.396,39.228 L61.6,29.8 L61.6,29.8 Z"></path>
        <path id="path-7" d="M29.544,0.772 C30.556,0.188 31.8,0.188 32.812,0.772 L59.868,16.4 C60.88,16.984 61.504,18.064 61.504,19.232 L61.504,50.516 C61.504,51.684 60.88,52.76 59.868,53.348 L32.812,68.988 C31.8,69.572 30.556,69.572 29.544,68.988 L2.492,53.348 C1.48,52.76 0.856,51.684 0.856,50.516 L0.856,19.232 C0.856,18.064 1.48,16.984 2.492,16.4 L29.544,0.772 L29.544,0.772 Z"></path>
        <path id="path-9" d="M34.136,73.432 C33.204,73.432 32.276,73.192 31.46,72.716 L22.94,67.672 C21.668,66.96 22.288,66.708 22.708,66.56 C24.408,65.972 24.752,65.836 26.56,64.808 C26.752,64.704 27,64.74 27.196,64.856 L33.74,68.744 C33.976,68.88 34.312,68.88 34.532,68.744 L60.044,54.004 C60.284,53.868 60.432,53.596 60.432,53.316 L60.432,23.844 C60.432,23.556 60.284,23.288 60.04,23.14 L34.536,8.412 C34.3,8.272 33.984,8.272 33.748,8.412 L8.248,23.144 C8,23.288 7.844,23.564 7.844,23.844 L7.844,53.316 C7.844,53.596 8,53.864 8.248,53.996 L15.236,58.04 C19.028,59.936 21.352,57.7 21.352,55.456 L21.352,26.356 C21.352,25.948 21.684,25.624 22.092,25.624 L25.328,25.624 C25.732,25.624 26.068,25.948 26.068,26.356 L26.068,55.456 C26.068,60.524 23.312,63.428 18.512,63.428 C17.036,63.428 15.876,63.428 12.636,61.828 L5.944,57.972 C4.292,57.016 3.268,55.228 3.268,53.316 L3.268,23.844 C3.268,21.928 4.292,20.14 5.944,19.188 L31.46,4.432 C33.076,3.52 35.22,3.52 36.82,4.432 L62.336,19.188 C63.988,20.144 65.012,21.928 65.012,23.844 L65.012,53.316 C65.012,55.228 63.988,57.012 62.336,57.972 L36.82,72.716 C36.004,73.192 35.08,73.432 34.136,73.432 L34.136,73.432 Z"></path>
        <path id="path-11" d="M14.016,29.132 C2.852,29.132 0.512,24 0.512,19.7 C0.512,19.288 0.84,18.964 1.248,18.964 L4.548,18.964 C4.92,18.964 5.224,19.228 5.284,19.588 C5.78,22.948 7.264,24.644 14.016,24.644 C19.392,24.644 21.68,23.428 21.68,20.572 C21.68,18.928 21.032,17.708 12.68,16.888 C5.696,16.196 1.38,14.652 1.38,9.064 C1.38,3.908 5.72,0.836 12.992,0.836 C21.168,0.836 25.212,3.676 25.724,9.772 C25.744,9.98 25.668,10.18 25.532,10.336 C25.388,10.484 25.196,10.572 24.992,10.572 L21.676,10.572 C21.336,10.572 21.032,10.328 20.96,9.996 C20.168,6.46 18.236,5.328 12.992,5.328 C7.124,5.328 6.444,7.376 6.444,8.908 C6.444,10.768 7.248,11.308 15.172,12.356 C23.012,13.396 26.736,14.864 26.736,20.376 C26.736,25.944 22.104,29.132 14.016,29.132 L14.016,29.132 Z"></path>
        <path id="path-13" d="M8.672,0.336 C8.868,0.224 9.108,0.224 9.3,0.336 L14.492,3.332 C14.688,3.448 14.808,3.652 14.808,3.876 L14.808,9.88 C14.808,10.104 14.688,10.312 14.492,10.42 L9.3,13.42 C9.108,13.532 8.868,13.532 8.672,13.42 L3.484,10.42 C3.292,10.312 3.172,10.104 3.172,9.88 L3.172,3.876 C3.172,3.652 3.292,3.448 3.484,3.332 L8.672,0.336 L8.672,0.336 Z"></path>
    </defs>
    <g id="Page-1" stroke="none" stroke-width="1" fill="none" fill-rule="evenodd" sketch:type="MSPage">
        <g id="green" sketch:type="MSLayerGroup">
            <g id="Group-6" transform="translate(64.000000, 240.000000)">
                <mask id="mask-2" sketch:name="Clip 5" fill="white">
                    <use xlink:href="#path-1"></use>
                </mask>
                <g id="Clip-5"></g>
                <path d="M3.44,-0.16 L64.4,-0.16 L64.4,62.72 L3.44,62.72 L3.44,-0.16 Z" id="Fill-4" fill="#2C2C2A" sketch:type="MSShapeGroup" mask="url(#mask-2)"></path>
            </g>
            <g id="Group-9" transform="translate(228.000000, 200.000000)">
                <mask id="mask-4" sketch:name="Clip 8" fill="white">
                    <use xlink:href="#path-3"></use>
                </mask>
                <g id="Clip-8"></g>
                <path d="M1.68,0.96 L62.64,0.96 L62.64,110.4 L1.68,110.4 L1.68,0.96 Z" id="Fill-7" fill="#2C2C2A" sketch:type="MSShapeGroup" mask="url(#mask-4)"></path>
            </g>
            <g id="Group-12" transform="translate(308.000000, 240.000000)">
                <mask id="mask-6" sketch:name="Clip 11" fill="white">
                    <use xlink:href="#path-5"></use>
                </mask>
                <g id="Clip-11"></g>
                <path d="M2.32,0.32 L63.28,0.32 L63.28,69.44 L2.32,69.44 L2.32,0.32 Z" id="Fill-10" fill="#2C2C2A" sketch:type="MSShapeGroup" mask="url(#mask-6)"></path>
            </g>
            <g id="Group-15" transform="translate(148.000000, 240.000000)">
                <mask id="mask-8" sketch:name="Clip 14" fill="white">
                    <use xlink:href="#path-7"></use>
                </mask>
                <g id="Clip-14"></g>
                <path d="M0.56,0.32 L61.52,0.32 L61.52,69.44 L0.56,69.44 L0.56,0.32 Z" id="Fill-13" fill="#78B743" sketch:type="MSShapeGroup" mask="url(#mask-8)"></path>
            </g>
            <g id="Group-18" transform="translate(388.000000, 236.000000)">
                <mask id="mask-10" sketch:name="Clip 17" fill="white">
                    <use xlink:href="#path-9"></use>
                </mask>
                <g id="Clip-17"></g>
                <path d="M2.96,3.36 L65.36,3.36 L65.36,73.44 L2.96,73.44 L2.96,3.36 Z" id="Fill-16" fill="#78B743" sketch:type="MSShapeGroup" mask="url(#mask-10)"></path>
            </g>
            <g id="Group-21" transform="translate(416.000000, 260.000000)">
                <mask id="mask-12" sketch:name="Clip 20" fill="white">
                    <use xlink:href="#path-11"></use>
                </mask>
                <g id="Clip-20"></g>
                <path d="M0.4,0.48 L26.8,0.48 L26.8,29.28 L0.4,29.28 L0.4,0.48 Z" id="Fill-19" fill="#78B743" sketch:type="MSShapeGroup" mask="url(#mask-12)"></path>
            </g>
            <g id="Group-24" transform="translate(332.000000, 268.000000)">
                <mask id="mask-14" sketch:name="Clip 23" fill="white">
                    <use xlink:href="#path-13"></use>
                </mask>
                <g id="Clip-23"></g>
                <path d="M2.8,0.16 L15.28,0.16 L15.28,13.6 L2.8,13.6 L2.8,0.16 Z" id="Fill-22" fill="#78B743" sketch:type="MSShapeGroup" mask="url(#mask-14)"></path>
            </g>
        </g>
    </g>
</svg>